<?xml version="1.0" encoding="UTF-8" standalone="no"?>
<svg width="80px" height="110px" viewBox="0 0 80 110" version="1.1" xmlns="http://www.w3.org/2000/svg" xmlns:xlink="http://www.w3.org/1999/xlink">
    <!-- Generator: Sketch 39 (31667) - http://www.bohemiancoding.com/sketch -->
    <title>Shape</title>
    <desc>Created with Sketch.</desc>
    <defs></defs>
    <g id="Page-1" stroke="none" stroke-width="1" fill="none" fill-rule="evenodd">
        <g id="guess-movie" transform="translate(-420.000000, -875.000000)" fill="#50E3C2">
            <g id="arrow" transform="translate(420.000000, 875.000000)">
                <path d="M79.4286145,57.3711902 C78.4881007,55.4453942 76.5380275,54.2249617 74.4013444,54.2249617 L61.2091457,54.2249617 L61.2091457,5.61893411 C61.2091457,2.5157841 58.7026018,0 55.6108493,0 L24.3887775,0 C21.297025,0 18.7904811,2.5157841 18.7904811,5.61893411 L18.7904811,54.2249617 L5.59865564,54.2249617 C3.46197254,54.2249617 1.51189931,55.4457688 0.571385529,57.3711902 C-0.369128256,59.2969862 -0.135119469,61.5917589 1.17413543,63.2864294 L35.5756664,107.8236 C36.6359837,109.196492 38.2695666,110 40.0001866,110 C41.7308066,110 43.3643895,109.196492 44.4243336,107.8236 L78.8258646,63.2864294 C80.1351195,61.5917589 80.3691283,59.2969862 79.4286145,57.3711902 L79.4286145,57.3711902 Z" id="Shape"></path>
            </g>
        </g>
    </g>
</svg>