<?xml version="1.0" encoding="UTF-8" standalone="no"?>
<svg width="200px" height="200px" viewBox="0 0 200 200" version="1.1" xmlns="http://www.w3.org/2000/svg" xmlns:xlink="http://www.w3.org/1999/xlink">
    <!-- Generator: Sketch 39 (31667) - http://www.bohemiancoding.com/sketch -->
    <title>Group</title>
    <desc>Created with Sketch.</desc>
    <defs></defs>
    <g id="Page-1" stroke="none" stroke-width="1" fill="none" fill-rule="evenodd">
        <g id="success" transform="translate(-958.000000, -424.000000)">
            <g id="confetti" transform="translate(280.000000, 424.000000)">
                <g id="Group" transform="translate(678.000000, 0.000000)">
                    <path d="M103.191489,177.503404 C103.191489,172.994468 104.654894,171.145106 107.31234,167.785957 C110.748936,163.441702 115.45617,157.492766 115.45617,146.499574 C115.45617,135.506809 110.748936,129.557872 107.311489,125.213617 C104.654894,121.85617 103.191489,120.007234 103.191489,115.499574 C103.191489,110.991915 104.654894,109.142553 107.313191,105.782553 C110.749787,101.439149 115.45617,95.4902128 115.45617,84.4987234 C115.45617,73.506383 110.748936,67.5570213 107.311064,63.212766 C104.654894,59.8553191 103.191489,58.0059574 103.191489,53.4991489 C103.191489,48.9910638 104.654894,47.1421277 107.31234,43.7838298 C110.748936,39.4395745 115.45617,33.4906383 115.45617,22.4982979 C115.45617,11.5259574 110.765957,5.5787234 107.330213,1.23702128 C107.323404,1.22808511 107.317021,1.22 107.310213,1.21148936 C106.21617,-0.170638298 104.209362,-0.404680851 102.82766,0.68893617 L98.0191489,4.49319149 C98.0008511,4.50808511 97.9825532,4.52255319 97.9646809,4.53744681 L93.2106383,8.3 C91.8285106,9.39361702 91.5948936,11.4008511 92.6885106,12.7829787 C95.3455319,16.1404255 96.8089362,17.9897872 96.8089362,22.4974468 C96.8089362,27.0059574 95.3455319,28.8548936 92.6868085,32.2148936 C89.2506383,36.5587234 84.5446809,42.5076596 84.5446809,53.4987234 C84.5446809,64.4910638 89.2514894,70.44 92.6893617,74.7842553 C95.3459574,78.1417021 96.8089362,79.9910638 96.8089362,84.4982979 C96.8089362,89.006383 95.3455319,90.8553191 92.6880851,94.2140426 C89.2514894,98.5578723 84.5446809,104.506809 84.5446809,115.499149 C84.5446809,126.491489 89.2519149,132.440426 92.6889362,136.784255 C95.3455319,140.142553 96.8089362,141.991915 96.8089362,146.499574 C96.8089362,151.008085 95.3455319,152.857447 92.6885106,156.216596 C89.2514894,160.560851 84.5446809,166.509787 84.5446809,177.503404 C84.5446809,188.497021 89.2506383,194.445106 92.6868085,198.788511 C93.3170213,199.584681 94.2502128,200.000426 95.192766,200.000426 C95.8859574,200.000426 96.5846809,199.775745 97.1702128,199.311915 L106.788511,191.702553 C107.45234,191.177447 107.88,190.410213 107.978298,189.568936 C108.07617,188.728085 107.836596,187.882979 107.311489,187.219574 C104.654894,183.862128 103.191489,182.01234 103.191489,177.503404 L103.191489,177.503404 Z M100.364681,188.645532 L95.7480851,192.297872 C93.213617,188.80766 90.9276596,184.501277 90.9276596,177.503404 C90.9276596,168.729362 94.5225532,164.185532 97.6948936,160.175745 C100.644255,156.447234 103.191489,153.227234 103.191489,146.499149 C103.191489,139.771489 100.644255,136.551915 97.6940426,132.823404 C94.5225532,128.814468 90.9276596,124.271064 90.9276596,115.498723 C90.9276596,106.726383 94.5221277,102.182553 97.6940426,98.173617 C100.64383,94.4451064 103.191489,91.2259574 103.191489,84.4978723 C103.191489,77.7706383 100.644255,74.5514894 97.693617,70.8217021 C94.5221277,66.813617 90.9276596,62.2702128 90.9276596,53.4978723 C90.9276596,44.726383 94.5217021,40.1829787 97.6940426,36.172766 C100.644255,32.4446809 103.191915,29.2246809 103.191915,22.4965957 C103.191915,17.3119149 101.678723,14.2110638 99.6348936,11.3548936 L104.250638,7.70170213 C106.785957,11.1923404 109.073617,15.4991489 109.073617,22.4965957 C109.073617,31.2689362 105.478723,35.8131915 102.306809,39.8221277 C99.3570213,43.5506383 96.8093617,46.7697872 96.8093617,53.4978723 C96.8093617,60.2246809 99.3565957,63.4438298 102.307234,67.1731915 C105.478723,71.1817021 109.073617,75.7255319 109.073617,84.4978723 C109.073617,93.2693617 105.479149,97.812766 102.306809,101.822979 C99.3570213,105.551489 96.8093617,108.771064 96.8093617,115.498723 C96.8093617,122.226383 99.3570213,125.445532 102.306809,129.173617 C105.478723,133.182553 109.073617,137.726383 109.073617,146.499149 C109.073617,155.27234 105.478723,159.816596 102.306809,163.825957 C99.3570213,167.554894 96.8093617,170.774894 96.8093617,177.503404 C96.8085106,182.688511 98.3212766,185.789787 100.364681,188.645532 L100.364681,188.645532 Z" id="Shape" fill="#50E3C2"></path>
                    <path d="M55.1723404,84.4987234 C55.1723404,73.506383 50.4651064,67.5570213 47.0280851,63.2131915 C44.3714894,59.8553191 42.9080851,58.006383 42.9080851,53.4991489 C42.9080851,48.9914894 44.3714894,47.1421277 47.0285106,43.7838298 C50.4655319,39.4395745 55.1723404,33.4906383 55.1723404,22.4982979 C55.1723404,11.5051064 50.4646809,5.55659574 47.0276596,1.21276596 C46.9485106,1.11319149 46.8651064,1.01957447 46.7774468,0.931914894 C45.6476596,-0.196595745 43.8268085,-0.325531915 42.5438298,0.689787234 L37.7489362,4.48382979 C37.7187234,4.50808511 37.7021277,4.5212766 37.6859574,4.53446809 L32.9268085,8.3012766 C31.5446809,9.39489362 31.3110638,11.4021277 32.4046809,12.7842553 C35.0617021,16.1417021 36.5255319,17.9906383 36.5255319,22.4987234 C36.5255319,27.0068085 35.0621277,28.8557447 32.4042553,32.2153191 C28.9676596,36.5591489 24.2608511,42.5080851 24.2608511,53.5 C24.2608511,64.4923404 28.9676596,70.4412766 32.4059574,74.7859574 C35.0621277,78.1434043 36.5255319,79.9923404 36.5255319,84.4995745 C36.5255319,89.007234 35.0621277,90.8565957 32.4042553,94.2153191 C28.9676596,98.5591489 24.2608511,104.508085 24.2608511,115.500426 C24.2608511,126.493191 28.966383,132.440426 32.4025532,136.782553 C33.0323404,137.578723 33.9651064,137.994043 34.907234,137.994043 C35.6008511,137.994043 36.2991489,137.769362 36.8851064,137.305532 L46.5034043,129.695745 C47.167234,129.170638 47.5948936,128.402979 47.6931915,127.562128 C47.7910638,126.720851 47.5510638,125.875745 47.0259574,125.211915 C44.3710638,121.856596 42.9085106,120.008085 42.9085106,115.500851 C42.9085106,110.992766 44.3719149,109.14383 47.0297872,105.784681 C50.4659574,101.439574 55.1723404,95.4906383 55.1723404,84.4987234 L55.1723404,84.4987234 Z M42.0229787,101.82383 C39.072766,105.551915 36.5251064,108.771915 36.5251064,115.499574 C36.5251064,120.682979 38.0370213,123.783404 40.0795745,126.637872 L35.4629787,130.290638 C32.9293617,126.801277 30.6438298,122.49617 30.6438298,115.499574 C30.6438298,106.727234 34.2382979,102.183404 37.4102128,98.1744681 C40.3604255,94.4459574 42.9080851,91.226383 42.9080851,84.4987234 C42.9080851,77.7719149 40.3608511,74.552766 37.4097872,70.8225532 C34.2382979,66.8144681 30.6438298,62.2710638 30.6438298,53.4987234 C30.6438298,44.7268085 34.2382979,40.1829787 37.4110638,36.1731915 C40.3608511,32.4446809 42.9080851,29.2251064 42.9080851,22.4974468 C42.9080851,17.312766 41.3948936,14.2114894 39.3506383,11.3553191 L43.9668085,7.70255319 C46.5021277,11.1931915 48.7893617,15.4995745 48.7893617,22.4974468 C48.7893617,31.2697872 45.1944681,35.813617 42.0225532,39.8234043 C39.072766,43.5514894 36.5255319,46.7710638 36.5255319,53.4987234 C36.5255319,60.2255319 39.072766,63.4451064 42.0229787,67.1740426 C45.1948936,71.1829787 48.7893617,75.726383 48.7893617,84.4987234 C48.7893617,93.2710638 45.1948936,97.8144681 42.0229787,101.82383 L42.0229787,101.82383 Z" id="Shape" fill="#50E3C2"></path>
                    <path d="M163.475319,115.499574 C163.475319,110.991915 164.938723,109.142553 167.596596,105.783404 C171.032766,101.439574 175.739574,95.4906383 175.739574,84.4987234 C175.739574,73.506383 171.03234,67.5570213 167.595319,63.2131915 C164.938723,59.8553191 163.475319,58.0059574 163.475319,53.4987234 C163.475319,48.9910638 164.938298,47.1417021 167.595745,43.7834043 C171.03234,39.4391489 175.739574,33.4902128 175.739574,22.4978723 C175.739574,11.5046809 171.031915,5.55617021 167.594468,1.21234043 C167.513617,1.10978723 167.426809,1.01361702 167.336596,0.923404255 C166.206383,-0.198297872 164.391064,-0.323829787 163.110638,0.68893617 L158.31617,4.48297872 C158.28766,4.50595745 158.27234,4.51744681 158.257872,4.5293617 L153.493617,8.3 C152.111489,9.39361702 151.877872,11.4008511 152.971489,12.7829787 C155.628511,16.1404255 157.09234,17.9897872 157.09234,22.4974468 C157.09234,27.0051064 155.629362,28.8544681 152.971064,32.213617 C149.534468,36.5574468 144.82766,42.506383 144.82766,53.4987234 C144.82766,64.4910638 149.534468,70.44 152.973191,74.7855319 C155.628936,78.1425532 157.09234,79.9914894 157.09234,84.4982979 C157.09234,89.0055319 155.628936,90.8548936 152.971064,94.213617 C149.534468,98.5574468 144.82766,104.506383 144.82766,115.499149 C144.82766,126.491915 149.533191,132.439149 152.968936,136.781277 C153.598723,137.577447 154.531915,137.992766 155.474043,137.992766 C156.16766,137.992766 156.865957,137.768085 157.451915,137.304255 L167.070213,129.694468 C167.734468,129.169362 168.161702,128.401702 168.26,127.560851 C168.358298,126.72 168.118298,125.874894 167.593191,125.211489 C164.938298,121.855319 163.475319,120.006809 163.475319,115.499574 L163.475319,115.499574 Z M160.646809,126.637447 L156.030213,130.290213 C153.496596,126.800851 151.211064,122.495745 151.211064,115.499149 C151.211064,106.726383 154.805532,102.182979 157.977447,98.1731915 C160.92766,94.4451064 163.475319,91.2255319 163.475319,84.4982979 C163.475319,77.7719149 160.928511,74.552766 157.977021,70.8225532 C154.805532,66.8140426 151.211064,62.2710638 151.211064,53.4982979 C151.211064,44.7259574 154.805532,40.1825532 157.978298,36.1723404 C160.928085,32.4438298 163.475319,29.2242553 163.475319,22.4970213 C163.475319,17.3123404 161.962128,14.2110638 159.917872,11.3548936 L164.534043,7.70212766 C167.069362,11.192766 169.356596,15.4991489 169.356596,22.4970213 C169.356596,31.2693617 165.761702,35.8131915 162.589787,39.8229787 C159.64,43.5514894 157.092766,46.7710638 157.092766,53.4982979 C157.092766,60.2255319 159.64,63.4451064 162.590213,67.173617 C165.761702,71.1825532 169.356596,75.7259574 169.356596,84.4982979 C169.356596,93.2706383 165.762128,97.8140426 162.590213,101.823404 C159.640426,105.551915 157.092766,108.771489 157.092766,115.499149 C157.09234,120.682979 158.604255,123.782979 160.646809,126.637447 L160.646809,126.637447 Z" id="Shape" fill="#50E3C2"></path>
                    <path d="M15.7068085,74.9242553 C10.427234,74.9242553 6.13234043,79.2195745 6.13234043,84.4987234 C6.13234043,89.7778723 10.427234,94.0731915 15.7068085,94.0731915 C20.986383,94.0731915 25.2812766,89.7778723 25.2812766,84.4987234 C25.2812766,79.2195745 20.986383,74.9242553 15.7068085,74.9242553 L15.7068085,74.9242553 Z M15.7068085,87.6902128 C13.9468085,87.6902128 12.5153191,86.2587234 12.5153191,84.4987234 C12.5153191,82.7387234 13.9468085,81.307234 15.7068085,81.307234 C17.4668085,81.307234 18.8982979,82.7387234 18.8982979,84.4987234 C18.8982979,86.2587234 17.4668085,87.6902128 15.7068085,87.6902128 L15.7068085,87.6902128 Z" id="Shape" fill="#FFFFFF"></path>
                    <path d="M9.57446809,167.928936 C4.29489362,167.928936 0,172.224255 0,177.503404 C0,182.782553 4.29489362,187.077872 9.57446809,187.077872 C14.8540426,187.077872 19.1489362,182.782979 19.1489362,177.503404 C19.1489362,172.22383 14.8540426,167.928936 9.57446809,167.928936 L9.57446809,167.928936 Z M9.57446809,180.694894 C7.81446809,180.694894 6.38297872,179.263404 6.38297872,177.503404 C6.38297872,175.743404 7.81446809,174.311915 9.57446809,174.311915 C11.3344681,174.311915 12.7659574,175.743404 12.7659574,177.503404 C12.7659574,179.263404 11.3344681,180.694894 9.57446809,180.694894 L9.57446809,180.694894 Z" id="Shape" fill="#FFFFFF"></path>
                    <path d="M69.8582979,136.927234 C64.5787234,136.927234 60.2838298,141.222553 60.2838298,146.501702 C60.2838298,151.780851 64.5787234,156.07617 69.8582979,156.07617 C75.1378723,156.07617 79.432766,151.780851 79.432766,146.501702 C79.432766,141.222553 75.1378723,136.927234 69.8582979,136.927234 L69.8582979,136.927234 Z M69.8582979,149.693191 C68.0982979,149.693191 66.6668085,148.261702 66.6668085,146.501702 C66.6668085,144.741702 68.0982979,143.310213 69.8582979,143.310213 C71.6182979,143.310213 73.0497872,144.741702 73.0497872,146.501702 C73.0497872,148.261702 71.6182979,149.693191 69.8582979,149.693191 L69.8582979,149.693191 Z" id="Shape" fill="#FFFFFF"></path>
                    <path d="M73.3008511,53.4987234 C73.3008511,48.2195745 69.0059574,43.9242553 63.726383,43.9242553 C58.4468085,43.9242553 54.1519149,48.2195745 54.1519149,53.4987234 C54.1519149,58.7778723 58.4468085,63.0731915 63.726383,63.0731915 C69.0059574,63.0731915 73.3008511,58.7782979 73.3008511,53.4987234 L73.3008511,53.4987234 Z M60.5348936,53.4987234 C60.5348936,51.7387234 61.966383,50.307234 63.726383,50.307234 C65.486383,50.307234 66.9178723,51.7387234 66.9178723,53.4987234 C66.9178723,55.2587234 65.486383,56.6902128 63.726383,56.6902128 C61.966383,56.6902128 60.5348936,55.2587234 60.5348936,53.4987234 L60.5348936,53.4987234 Z" id="Shape" fill="#FFFFFF"></path>
                    <path d="M75.9902128,12.9234043 C70.7106383,12.9234043 66.4157447,17.2187234 66.4157447,22.4978723 C66.4157447,27.7770213 70.7106383,32.0723404 75.9902128,32.0723404 C81.2697872,32.0723404 85.5646809,27.7770213 85.5646809,22.4978723 C85.5646809,17.2187234 81.2697872,12.9234043 75.9902128,12.9234043 L75.9902128,12.9234043 Z M75.9902128,25.6893617 C74.2302128,25.6893617 72.7987234,24.2578723 72.7987234,22.4978723 C72.7987234,20.7378723 74.2302128,19.306383 75.9902128,19.306383 C77.7502128,19.306383 79.1817021,20.7378723 79.1817021,22.4978723 C79.1817021,24.2578723 77.7502128,25.6893617 75.9902128,25.6893617 L75.9902128,25.6893617 Z" id="Shape" fill="#FFFFFF"></path>
                    <path d="M124.009787,106.021277 C118.730638,106.021277 114.435319,110.316596 114.435319,115.595745 C114.435319,120.874894 118.730638,125.170213 124.009787,125.170213 C129.288936,125.170213 133.584255,120.874894 133.584255,115.595745 C133.584255,110.316596 129.288936,106.021277 124.009787,106.021277 L124.009787,106.021277 Z M124.009787,118.787234 C122.249787,118.787234 120.818298,117.355745 120.818298,115.595745 C120.818298,113.835745 122.249787,112.404255 124.009787,112.404255 C125.769787,112.404255 127.201277,113.835745 127.201277,115.595745 C127.201277,117.355745 125.769787,118.787234 124.009787,118.787234 L124.009787,118.787234 Z" id="Shape" fill="#FFFFFF"></path>
                    <path d="M124.009787,167.928936 C118.730638,167.928936 114.435319,172.224255 114.435319,177.503404 C114.435319,182.782553 118.730638,187.077872 124.009787,187.077872 C129.288936,187.077872 133.584255,182.782553 133.584255,177.503404 C133.584255,172.224255 129.288936,167.928936 124.009787,167.928936 L124.009787,167.928936 Z M124.009787,180.694894 C122.249787,180.694894 120.818298,179.263404 120.818298,177.503404 C120.818298,175.743404 122.249787,174.311915 124.009787,174.311915 C125.769787,174.311915 127.201277,175.743404 127.201277,177.503404 C127.201277,179.263404 125.769787,180.694894 124.009787,180.694894 L124.009787,180.694894 Z" id="Shape" fill="#FFFFFF"></path>
                    <path d="M136.274043,74.9242553 C130.994894,74.9242553 126.699574,79.2195745 126.699574,84.4987234 C126.699574,89.7778723 130.994894,94.0731915 136.274043,94.0731915 C141.553191,94.0731915 145.848511,89.7778723 145.848511,84.4987234 C145.848511,79.2195745 141.553617,74.9242553 136.274043,74.9242553 L136.274043,74.9242553 Z M136.274043,87.6902128 C134.514043,87.6902128 133.082553,86.2587234 133.082553,84.4987234 C133.082553,82.7387234 134.514043,81.307234 136.274043,81.307234 C138.034043,81.307234 139.465532,82.7387234 139.465532,84.4987234 C139.465532,86.2587234 138.034043,87.6902128 136.274043,87.6902128 L136.274043,87.6902128 Z" id="Shape" fill="#FFFFFF"></path>
                    <path d="M178.161277,167.928936 C172.882128,167.928936 168.586809,172.224255 168.586809,177.503404 C168.586809,182.782553 172.882128,187.077872 178.161277,187.077872 C183.440426,187.077872 187.735745,182.782553 187.735745,177.503404 C187.735745,172.224255 183.440426,167.928936 178.161277,167.928936 L178.161277,167.928936 Z M178.161277,180.694894 C176.401277,180.694894 174.969787,179.263404 174.969787,177.503404 C174.969787,175.743404 176.401277,174.311915 178.161277,174.311915 C179.921277,174.311915 181.352766,175.743404 181.352766,177.503404 C181.352766,179.263404 179.921277,180.694894 178.161277,180.694894 L178.161277,180.694894 Z" id="Shape" fill="#FFFFFF"></path>
                    <path d="M190.425532,136.927234 C185.146383,136.927234 180.851064,141.222553 180.851064,146.501702 C180.851064,151.780851 185.146383,156.07617 190.425532,156.07617 C195.704681,156.07617 200,151.780851 200,146.501702 C200,141.222553 195.705106,136.927234 190.425532,136.927234 L190.425532,136.927234 Z M190.425532,149.693191 C188.665532,149.693191 187.234043,148.261702 187.234043,146.501702 C187.234043,144.741702 188.665532,143.310213 190.425532,143.310213 C192.185532,143.310213 193.617021,144.741702 193.617021,146.501702 C193.617021,148.261702 192.185532,149.693191 190.425532,149.693191 L190.425532,149.693191 Z" id="Shape" fill="#FFFFFF"></path>
                    <path d="M184.293617,63.0731915 C189.572766,63.0731915 193.868085,58.7778723 193.868085,53.4987234 C193.868085,48.2195745 189.572766,43.9242553 184.293617,43.9242553 C179.014468,43.9242553 174.719149,48.2195745 174.719149,53.4987234 C174.719149,58.7778723 179.014468,63.0731915 184.293617,63.0731915 L184.293617,63.0731915 Z M184.293617,50.307234 C186.053617,50.307234 187.485106,51.7387234 187.485106,53.4987234 C187.485106,55.2587234 186.053617,56.6902128 184.293617,56.6902128 C182.533617,56.6902128 181.102128,55.2587234 181.102128,53.4987234 C181.102128,51.7391489 182.533617,50.307234 184.293617,50.307234 L184.293617,50.307234 Z" id="Shape" fill="#FFFFFF"></path>
                </g>
            </g>
        </g>
    </g>
</svg>