<?xml version="1.0" encoding="UTF-8" standalone="no"?>
<svg width="225px" height="225px" viewBox="0 0 225 225" version="1.1" xmlns="http://www.w3.org/2000/svg" xmlns:xlink="http://www.w3.org/1999/xlink">
    <!-- Generator: Sketch 39 (31667) - http://www.bohemiancoding.com/sketch -->
    <title>fried-egg</title>
    <desc>Created with Sketch.</desc>
    <defs></defs>
    <g id="Page-1" stroke="none" stroke-width="1" fill="none" fill-rule="evenodd">
        <g id="failure" transform="translate(-266.000000, -428.000000)">
            <g id="fried-egg" transform="translate(266.000000, 428.000000)">
                <g id="Layer_1">
                    <g id="Group">
                        <path d="M184.842526,57.9896907 C184.842526,50.4912371 181.33067,45.1453608 175.201546,43.3291237 L173.139433,50.2770619 C176.093041,51.153866 177.593814,53.7494845 177.593814,57.9896907 C177.593814,68.8847938 177.593814,81.2365979 189.528866,93.1716495 L194.653608,88.0469072 C184.842526,78.2350515 184.842526,68.4023196 184.842526,57.9896907 L184.842526,57.9896907 Z" id="Shape" fill="#FFFFFF"></path>
                        <path d="M201.667268,95.0775773 L197.013402,100.633763 C202.348454,105.102835 203.106186,110.70232 202.79768,114.613144 C202.196134,122.304124 197.028093,130.527835 190.224742,134.619588 L193.957732,140.831443 C202.78299,135.528866 209.241495,125.217526 210.024742,115.182216 C210.644845,107.251546 207.675773,100.111856 201.667268,95.0775773 L201.667268,95.0775773 Z" id="Shape" fill="#FFFFFF"></path>
                        <path d="M21.8188144,116.015722 C21.8621134,111.604639 22.5981959,105.845876 27.9548969,100.398711 L22.7868557,95.317268 C15.5342784,102.692784 14.625,110.62268 14.5701031,115.943814 C14.482732,124.747423 20.9420103,133.090979 26.9837629,137.11701 L31.0028351,131.086082 C26.5082474,128.088402 21.7608247,121.789175 21.8188144,116.015722 L21.8188144,116.015722 Z" id="Shape" fill="#FFFFFF"></path>
                        <path d="M42.4128866,47.6822165 C39.1438144,51.6726804 38.3134021,57.8157216 39.9371134,65.9528351 L47.0443299,64.5286082 C45.9131443,58.8858247 46.2324742,54.5652062 47.9435567,52.3724227 C49.1358247,50.8430412 50.7556701,50.7417526 50.8252577,50.7417526 L50.7417526,43.4930412 C50.2414948,43.492268 45.753866,43.6082474 42.4128866,47.6822165 L42.4128866,47.6822165 Z" id="Shape" fill="#FFFFFF"></path>
                        <path d="M167.100773,175.588918 C168.804124,178.995619 166.557216,180.829639 165.064175,181.615979 L166.720361,184.841753 L168.340206,188.085309 C172.558763,185.976031 177.433763,180.046392 173.584794,172.348454 L167.100773,175.588918 L167.100773,175.588918 Z" id="Shape" fill="#FFFFFF"></path>
                        <path d="M112.355412,76.1118557 C84.375,76.1118557 61.614433,98.8731959 61.614433,126.852835 C61.614433,154.832474 84.3757732,177.593814 112.355412,177.593814 C140.335052,177.593814 163.096392,154.832474 163.096392,126.852835 C163.096392,98.8731959 140.335052,76.1118557 112.355412,76.1118557 L112.355412,76.1118557 Z M112.355412,170.345103 C88.3731959,170.345103 68.8631443,150.835052 68.8631443,126.852835 C68.8631443,102.870619 88.3731959,83.360567 112.355412,83.360567 C136.337629,83.360567 155.84768,102.870619 155.84768,126.852835 C155.84768,150.835052 136.338402,170.345103 112.355412,170.345103 L112.355412,170.345103 Z" id="Shape" fill="#50E3C2"></path>
                        <path d="M90.6092784,126.852835 L83.360567,126.852835 C83.360567,142.840206 96.3680412,155.84768 112.355412,155.84768 L112.355412,148.598969 C100.362371,148.598969 90.6092784,138.845103 90.6092784,126.852835 L90.6092784,126.852835 Z" id="Shape" fill="#FFFFFF"></path>
                        <path d="M209.173454,80.8198454 C200.996907,72.5018041 199.340722,68.0512887 199.340722,54.3657216 C199.340722,39.4260309 187.416495,28.9948454 170.345876,28.9948454 C156.385052,28.9948454 145.174485,23.3953608 137.016495,12.3448454 C130.541753,3.57757732 123.395103,0 112.355412,0 C101.311856,0 94.168299,3.57757732 87.6920103,12.3448454 C79.5402062,23.3953608 68.3273196,28.9948454 54.3657216,28.9948454 C37.2951031,28.9948454 25.3708763,39.4260309 25.3708763,54.3657216 C25.3708763,68.0512887 23.7146907,72.5018041 15.5381443,80.8198454 C5.37216495,91.1528351 0,103.312113 0,115.979381 C0,130.476804 7.00979381,143.129381 19.7342784,151.614433 C29.9257732,158.410052 36.2435567,165.126031 36.2435567,177.593814 C36.2435567,192.293814 48.4360825,202.964691 65.2384021,202.964691 C78.9417526,202.964691 88.3801546,207.103608 94.9438144,215.990722 C99.035567,221.532216 105.381959,224.710825 112.355412,224.710825 C119.328866,224.710825 125.675258,221.532216 129.770103,215.990722 C136.326804,207.103608 145.764433,202.964691 159.471649,202.964691 C176.273969,202.964691 188.466495,192.294588 188.466495,177.593814 C188.466495,165.126031 194.783505,158.410052 204.975773,151.614433 C217.701031,143.130155 224.710052,130.476804 224.710052,115.979381 C224.710052,103.312113 219.339433,91.1528351 209.173454,80.8198454 L209.173454,80.8198454 Z M200.952062,145.582732 C190.702577,152.414691 181.217784,161.02268 181.217784,177.593041 C181.217784,188.263144 172.276546,195.715206 159.471649,195.715206 C143.49201,195.715206 131.868557,200.938144 123.93866,211.684021 C121.223969,215.355155 117.005412,217.46134 112.355412,217.46134 C107.709278,217.46134 103.486856,215.355928 100.775258,211.684021 C92.8414948,200.938144 81.2180412,195.715206 65.2384021,195.715206 C52.4335052,195.715206 43.492268,188.263918 43.492268,177.593041 C43.492268,161.02268 34.0074742,152.414691 23.7579897,145.582732 C13.1126289,138.48634 7.24871134,127.972423 7.24871134,115.979381 C7.24871134,105.102835 11.7757732,94.9801546 20.7061856,85.9005155 C30.1693299,76.2780928 32.6195876,69.7940722 32.6195876,54.3649485 C32.6195876,41.846134 43.543299,36.2427835 54.3657216,36.2427835 C70.5231959,36.2427835 84.0634021,29.4649485 93.5234536,16.6492268 C97.9237113,10.6940722 102.41366,7.24793814 112.355412,7.24793814 C122.297165,7.24793814 126.787887,10.6948454 131.184278,16.6492268 C140.647423,29.4649485 154.188402,36.2427835 170.345103,36.2427835 C181.167526,36.2427835 192.091237,41.846134 192.091237,54.3649485 C192.091237,69.7940722 194.541495,76.2780928 204.004639,85.9005155 C212.935052,94.9793814 217.462113,105.102062 217.462113,115.979381 C217.46134,127.972423 211.598196,138.48634 200.952062,145.582732 L200.952062,145.582732 Z" id="Shape" fill="#FFFFFF"></path>
                    </g>
                </g>
            </g>
        </g>
    </g>
</svg>