<?xml version="1.0" encoding="UTF-8" standalone="no"?>
<svg width="1245px" height="99px" viewBox="0 0 1245 99" version="1.1" xmlns="http://www.w3.org/2000/svg" xmlns:xlink="http://www.w3.org/1999/xlink">
    <!-- Generator: Sketch 39 (31667) - http://www.bohemiancoding.com/sketch -->
    <title>logo</title>
    <desc>Created with Sketch.</desc>
    <defs></defs>
    <g id="Page-1" stroke="none" stroke-width="1" fill="none" fill-rule="evenodd">
        <g id="answering" transform="translate(-100.000000, -38.000000)">
            <g id="logo" transform="translate(100.000000, 38.000000)">
                <g transform="translate(501.000000, 0.000000)">
                    <path d="M15.3442247,63.5609436 C16.6229165,63.5609436 17.2622528,64.4469112 17.2622528,66.2188729 L17.2622528,86.7326343 C17.2622528,89.049815 17.6960881,90.2083879 18.5637719,90.2083879 C18.7464421,90.2083879 19.077527,90.1515952 19.5570364,90.0380079 C20.0365458,89.9244206 20.436131,89.8676278 20.755804,89.8676278 C22.6738416,89.8676278 23.6328461,91.0489179 23.6328461,93.4115334 C23.6328461,96.5465425 22.2856732,98.1140236 19.5912869,98.1140236 C19.1346113,98.1140236 17.8559387,98.000438 15.7552307,97.7732634 C14.4765389,97.6369587 13.0151988,97.5688073 11.3711665,97.5688073 C10.5491504,97.5688073 9.33897809,97.6596758 7.74061336,97.8414155 C6.14224862,98.0231551 4.95490978,98.1140236 4.17856119,98.1140236 C2.94553697,98.1140236 1.94086564,97.6937569 1.16451705,96.853211 C0.388168469,96.0126651 0,94.933602 0,93.6159895 C0,91.0261994 1.09600509,89.7313237 3.28804815,89.7313237 C3.28804815,89.7313237 3.88171758,89.8676264 5.06907423,90.1402359 C5.25174449,90.1856708 5.41157856,90.2083879 5.54858126,90.2083879 C6.3705974,90.2083879 6.78159931,88.9362294 6.78159931,86.3918742 L6.78159931,75.3512451 C6.78159931,72.7614549 6.39343084,71.4665793 5.61708226,71.4665793 C5.48007957,71.4665793 5.06907766,71.5801649 4.3840642,71.8073394 C3.92738856,71.8982093 3.56205353,71.9436435 3.28804815,71.9436435 C1.09600509,71.9436435 0,70.671485 0,68.1271298 C0,66.7640823 0.388168469,65.6623021 1.16451705,64.8217562 C1.94086564,63.9812103 2.96837041,63.5609436 4.2470622,63.5609436 C4.7494054,63.5609436 5.48007546,63.629095 6.4390943,63.7653997 C8.03745903,63.9925743 9.31613163,64.1061599 10.2751505,64.1061599 C11.0514991,64.1061599 12.0561704,64.0152914 13.2891946,63.8335518 C14.5222188,63.6518121 15.207222,63.5609436 15.3442247,63.5609436 L15.3442247,63.5609436 Z M39.8675838,65.6055046 L39.8675838,68.740498 C43.2926511,64.6513557 47.1058355,62.6068152 51.3072514,62.6068152 C54.8236538,62.6068152 57.7235006,64.310599 60.0068788,67.7182176 C62.290257,65.7645162 64.242516,64.4242063 65.8637145,63.6972477 C67.484913,62.9702891 69.3686718,62.6068152 71.5150473,62.6068152 C75.8534658,62.6068152 79.0958142,64.0379936 81.2421897,66.9003932 C82.7035518,68.8540945 83.4342218,71.9890566 83.4342218,76.3053735 L83.4342218,86.7326343 C83.4342218,89.049815 83.8680572,90.2083879 84.7357409,90.2083879 C85.0097463,90.2083879 85.3750813,90.1402366 85.831757,90.0039318 C86.0600948,89.913062 86.4025964,89.8676278 86.859272,89.8676278 C88.8686448,89.8676278 89.8733161,91.0489179 89.8733161,93.4115334 C89.8733161,94.8200158 89.5079811,95.9558716 88.7773001,96.819135 C88.0466191,97.6823984 87.0876146,98.1140236 85.900258,98.1140236 C85.7632553,98.1140236 85.1010855,98.0458722 83.9137289,97.9095675 L82.4067068,97.7051114 C81.6760258,97.6142416 80.7170213,97.5688073 79.5296647,97.5688073 C78.0683026,97.5688073 76.6526294,97.6596758 75.2826025,97.8414155 C73.9125756,98.0231551 72.9535711,98.1140236 72.4055603,98.1140236 C71.3095388,98.1140236 70.4076179,97.6937569 69.6997707,96.853211 C68.9919235,96.0126651 68.6380052,94.9563192 68.6380052,93.6841415 C68.6380052,91.5941355 69.4828424,90.3901283 71.1725423,90.0720839 C72.040226,89.9357791 72.5539784,89.6858909 72.7138148,89.3224115 C72.8736513,88.9589322 72.9535684,87.9593791 72.9535684,86.3237221 L72.9535684,79.3040629 C72.9535684,76.3962284 72.6453169,74.4084807 72.0288048,73.3407602 C71.4122927,72.2730397 70.2363706,71.7391874 68.5010032,71.7391874 C64.6192602,71.7391874 62.6784179,74.4879585 62.6784179,79.9855832 L62.6784179,86.3237221 C62.6784179,87.8685093 62.7469182,88.8453453 62.8839209,89.2542595 C63.0209236,89.6631737 63.3862586,89.9357791 63.9799369,90.0720839 C65.3956314,90.3901283 66.103468,91.5259841 66.103468,93.4796855 C66.103468,96.5692597 64.8247954,98.1140236 62.2674119,98.1140236 C61.7650687,98.1140236 61.057232,98.0458722 60.1438808,97.9095675 C58.6368512,97.6823929 57.6321798,97.5688073 57.1298366,97.5688073 C56.5818259,97.5688073 55.7712388,97.6596758 54.698051,97.8414155 C53.6248633,98.0231551 52.8142762,98.1140236 52.2662654,98.1140236 C50.0285548,98.1140236 48.9097163,96.6828452 48.9097163,93.8204456 C48.9097163,91.7758744 49.6175529,90.5718673 51.0332473,90.2083879 C51.8095959,90.0266483 52.2205978,89.4814375 52.2662654,88.5727392 C52.311933,87.3459965 52.3347664,86.5963316 52.3347664,86.3237221 L52.3347664,78.6225426 C52.3347664,76.0327525 52.026515,74.2381002 51.4100029,73.2385321 C50.7934908,72.238964 49.6860689,71.7391874 48.0877042,71.7391874 C44.0689586,71.7391874 42.0596159,74.4879585 42.0596159,79.9855832 L42.0596159,88.231979 C42.0596159,88.9589377 42.1509497,89.4246386 42.3336199,89.6290957 C42.5162902,89.8335528 42.972959,90.0039312 43.70364,90.1402359 C45.484675,90.4582803 46.3751791,91.6395704 46.3751791,93.6841415 C46.3751791,96.637411 45.11934,98.1140236 42.607624,98.1140236 C41.8312754,98.1140236 40.6781867,98.0231551 39.1483233,97.8414155 C37.6184599,97.6596758 36.4653712,97.5688073 35.6890226,97.5688073 C34.6386687,97.5688073 33.565497,97.6369587 32.4694755,97.7732634 C30.6427729,98.000438 29.4782675,98.1140236 28.9759243,98.1140236 C27.6972325,98.1140236 26.6811445,97.6937569 25.9276297,96.853211 C25.1741149,96.0126651 24.7973631,94.933602 24.7973631,93.6159895 C24.7973631,91.0261994 25.8933682,89.7313237 28.0854113,89.7313237 C28.4507518,89.7313237 28.8617537,89.8108336 29.3184293,89.9698558 C29.775105,90.128878 30.1176066,90.2083879 30.3459444,90.2083879 C31.122293,90.2083879 31.5104615,88.9362294 31.5104615,86.3918742 L31.5104615,75.3512451 C31.5104615,72.7614549 31.122293,71.4665793 30.3459444,71.4665793 C30.1632741,71.4665793 29.8093558,71.5460892 29.2841788,71.7051114 C28.7590019,71.8641336 28.3594167,71.9436435 28.0854113,71.9436435 C25.8933682,71.9436435 24.7973631,70.671485 24.7973631,68.1271298 C24.7973631,66.8095172 25.1741149,65.7190956 25.9276297,64.8558322 C26.6811445,63.9925689 27.6743991,63.5609436 28.9074233,63.5609436 C29.1814287,63.5609436 29.9349322,63.6745292 31.1679564,63.9017038 C31.8986375,64.0380085 32.5836406,64.1061599 33.2229865,64.1061599 C33.7709973,64.1061599 34.5815844,64.0152914 35.6547721,63.8335518 C36.7279599,63.6518121 37.538547,63.5609436 38.0865578,63.5609436 C39.2739144,63.5609436 39.8675838,64.2424571 39.8675838,65.6055046 L39.8675838,65.6055046 Z M118.780739,67.7182176 L130.836916,67.7182176 C133.302964,67.8090874 134.809971,68.4451667 135.357982,69.6264744 C135.814658,70.4897378 136.042992,71.7618964 136.042992,73.4429882 L136.042992,88.4364351 C136.042992,89.8903524 135.403656,91.2760965 134.124964,92.593709 C130.288889,96.5465466 124.534862,98.5229358 116.862711,98.5229358 C110.058244,98.5229358 104.144384,95.9672602 99.1209516,90.8558322 C94.0975195,85.7444043 91.5858412,79.5767072 91.5858412,72.3525557 C91.5858412,65.1284042 94.1431864,59.0970098 99.2579536,54.2581913 C104.372721,49.4193729 110.400749,47 117.342218,47 C122.730991,47 127.822848,48.7719351 132.617942,52.3158585 C133.850966,53.2245567 134.467469,54.2354684 134.467469,55.3486239 C134.467469,56.4617793 133.9423,57.7452964 132.891946,59.1992136 C131.110911,61.6072641 129.489737,62.8112713 128.028375,62.8112713 C127.160691,62.8112713 125.767851,62.1865506 123.849814,60.9370904 C121.931776,59.6876303 119.648432,59.0629096 116.999713,59.0629096 C113.528979,59.0629096 110.446464,60.2782753 107.752078,62.7090433 C105.057692,65.1398112 103.710519,68.3202075 103.710519,72.2503277 C103.710519,76.1804478 105.080525,79.5198639 107.820579,82.2686763 C110.560633,85.0174886 113.665981,86.3918742 117.136715,86.3918742 C119.648431,86.3918742 121.908942,85.9829661 123.918315,85.1651376 L123.918315,77.7365662 L118.506735,77.7365662 C117.091041,77.7365662 116.08637,77.5548293 115.492691,77.1913499 C114.899013,76.8278706 114.510845,76.2940184 114.328174,75.5897772 C114.145504,74.885536 114.05417,73.9314171 114.05417,72.7273919 C114.05417,71.5233666 114.156921,70.5578892 114.362425,69.8309305 C114.567929,69.1039719 114.944681,68.6041953 115.492691,68.3315858 C116.314707,67.9226716 117.410713,67.7182176 118.780739,67.7182176 L118.780739,67.7182176 Z M154.880768,65.4692005 L154.880768,68.740498 C158.397171,64.6513557 162.370189,62.6068152 166.799943,62.6068152 C171.549369,62.6068152 174.905885,64.3787503 176.86959,67.9226737 C177.919944,69.7400702 178.445113,72.6024269 178.445113,76.5098296 L178.445113,86.7326343 C178.445113,89.049815 178.901782,90.2083879 179.815133,90.2083879 C180.043471,90.2083879 180.385973,90.1402366 180.842648,90.0039318 C181.070986,89.913062 181.413488,89.8676278 181.870163,89.8676278 C183.879536,89.8676278 184.884208,91.0489179 184.884208,93.4115334 C184.884208,96.5465425 183.514201,98.1140236 180.774147,98.1140236 C180.043466,98.1140236 178.947461,98.0231551 177.486099,97.8414155 C176.024737,97.6596758 174.928732,97.5688073 174.198051,97.5688073 C173.056362,97.5688073 171.84619,97.6596758 170.567498,97.8414155 C169.288806,98.0231551 168.238468,98.1140236 167.416452,98.1140236 C164.722065,98.1140236 163.374893,96.7282795 163.374893,93.9567497 C163.374893,91.5486992 164.311064,90.2765407 166.183434,90.1402359 C167.416458,90.0493661 168.032961,89.4814382 168.032961,88.4364351 L168.032961,78.8951507 C168.032961,76.2599257 167.690459,74.4084807 167.005446,73.3407602 C166.320432,72.2730397 165.155927,71.7391874 163.511895,71.7391874 C161.639524,71.7391874 160.098267,72.3752667 158.888077,73.6474443 C157.677886,74.9196219 157.0728,76.5325372 157.0728,78.4862385 L157.0728,85.5740498 C157.0728,87.618621 157.164134,88.8567038 157.346804,89.2883355 C157.529474,89.7199672 158.054644,90.0039312 158.922327,90.1402359 C160.56636,90.3674105 161.388363,91.5941348 161.388363,93.8204456 C161.388363,96.6828452 160.178191,98.1140236 157.75781,98.1140236 C157.072797,98.1140236 156.22796,98.0458722 155.223273,97.9095675 C153.533573,97.6823929 152.277734,97.5688073 151.455718,97.5688073 C150.633702,97.5688073 149.412113,97.6596758 147.790914,97.8414155 C146.169716,98.0231551 144.948127,98.1140236 144.126111,98.1140236 C141.249054,98.1140236 139.810547,96.5919768 139.810547,93.5478375 C139.810547,91.0034823 140.906553,89.7313237 143.098596,89.7313237 C143.463936,89.7313237 143.874938,89.8108336 144.331614,89.9698558 C144.788289,90.128878 145.130791,90.2083879 145.359129,90.2083879 C146.135477,90.2083879 146.523646,88.9362294 146.523646,86.3918742 L146.523646,75.3512451 C146.523646,72.7614549 146.135477,71.4665793 145.359129,71.4665793 C145.176458,71.4665793 144.82254,71.5460892 144.297363,71.7051114 C143.772186,71.8641336 143.372601,71.9436435 143.098596,71.9436435 C140.906553,71.9436435 139.810547,70.6942021 139.810547,68.1952818 C139.810547,66.8322343 140.187299,65.7190956 140.940814,64.8558322 C141.694329,63.9925689 142.687583,63.5609436 143.920608,63.5609436 C144.285948,63.5609436 145.062285,63.6745292 146.249642,63.9017038 C146.934655,64.0380085 147.528325,64.1061599 148.030668,64.1061599 C148.578679,64.1061599 149.51485,64.0152914 150.839209,63.8335518 C152.163568,63.6518121 152.894238,63.5609436 153.031241,63.5609436 C154.264265,63.5609436 154.880768,64.1970229 154.880768,65.4692005 L154.880768,65.4692005 Z M201.46145,63.5609436 C202.740142,63.5609436 203.379478,64.4469112 203.379478,66.2188729 L203.379478,86.7326343 C203.379478,89.049815 203.813314,90.2083879 204.680997,90.2083879 C204.863668,90.2083879 205.194753,90.1515952 205.674262,90.0380079 C206.153771,89.9244206 206.553357,89.8676278 206.87303,89.8676278 C208.791067,89.8676278 209.750072,91.0489179 209.750072,93.4115334 C209.750072,96.5465425 208.402899,98.1140236 205.708512,98.1140236 C205.251837,98.1140236 203.973164,98.000438 201.872456,97.7732634 C200.593765,97.6369587 199.132424,97.5688073 197.488392,97.5688073 C196.666376,97.5688073 195.456204,97.6596758 193.857839,97.8414155 C192.259474,98.0231551 191.072135,98.1140236 190.295787,98.1140236 C189.062763,98.1140236 188.058091,97.6937569 187.281743,96.853211 C186.505394,96.0126651 186.117226,94.933602 186.117226,93.6159895 C186.117226,91.0261994 187.213231,89.7313237 189.405274,89.7313237 C189.405274,89.7313237 189.998943,89.8676264 191.1863,90.1402359 C191.36897,90.1856708 191.528804,90.2083879 191.665807,90.2083879 C192.487823,90.2083879 192.898825,88.9362294 192.898825,86.3918742 L192.898825,75.3512451 C192.898825,72.7614549 192.510656,71.4665793 191.734308,71.4665793 C191.597305,71.4665793 191.186303,71.5801649 190.50129,71.8073394 C190.044614,71.8982093 189.679279,71.9436435 189.405274,71.9436435 C187.213231,71.9436435 186.117226,70.671485 186.117226,68.1271298 C186.117226,66.7640823 186.505394,65.6623021 187.281743,64.8217562 C188.058091,63.9812103 189.085596,63.5609436 190.364288,63.5609436 C190.866631,63.5609436 191.597301,63.629095 192.55632,63.7653997 C194.154685,63.9925743 195.433357,64.1061599 196.392376,64.1061599 C197.168725,64.1061599 198.173396,64.0152914 199.40642,63.8335518 C200.639444,63.6518121 201.324448,63.5609436 201.46145,63.5609436 L201.46145,63.5609436 Z M226.327314,72.897772 L226.327314,75.6920052 L226.258813,79.9174312 L226.121811,84.4836173 C226.076144,85.9829695 226.05331,86.5963316 226.05331,86.3237221 C226.05331,89.0043821 226.920981,90.344692 228.656349,90.344692 C230.300381,90.344692 231.122385,89.1406848 231.122385,86.7326343 C231.122385,86.369155 231.099551,86.0965496 231.053884,85.91481 C231.053884,85.6876354 231.053884,85.3923129 231.053884,85.0288336 C231.008216,84.7107891 230.985383,84.483618 230.985383,84.3473132 C230.985383,81.8938278 232.218388,80.6671035 234.684437,80.6671035 C237.561493,80.6671035 239,82.9615323 239,87.5504587 C239,91.139817 237.926828,93.9453809 235.780453,95.9672346 C233.634077,97.9890883 230.642897,99 226.806821,99 C219.271673,99 215.504156,95.0472217 215.504156,87.1415465 C215.504156,85.8693689 215.56124,83.9611311 215.675408,81.4167759 C215.789577,78.8724207 215.846661,76.9641829 215.846661,75.6920052 L215.846661,73.5111402 C215.846661,72.3752674 215.74391,71.6596782 215.538406,71.3643512 C215.332902,71.0690243 214.841983,70.921363 214.065635,70.921363 L212.969619,70.921363 C212.101935,70.921363 211.394098,70.5919648 210.846088,69.9331586 C210.298077,69.2743523 210.024076,68.4224604 210.024076,67.3774574 C210.024076,66.3324544 210.309494,65.4351283 210.880338,64.6854522 C211.451183,63.9357761 212.124769,63.5609436 212.901118,63.5609436 L214.202637,63.5609436 C215.298658,63.5609436 215.937995,63.242904 216.120665,62.6068152 C216.257668,62.2433359 216.326168,61.6299737 216.326168,60.7667104 L216.326168,57.4272608 C216.326168,55.8370388 216.748587,54.7466172 217.593437,54.1559633 C218.438286,53.5653094 219.979544,53.2699869 222.217254,53.2699869 C223.815619,53.2699869 224.900207,53.4971581 225.471052,53.9515072 C226.041896,54.4058564 226.327314,55.4054095 226.327314,56.9501966 L226.327314,60.6304063 C226.327314,61.9480188 226.452898,62.765835 226.70407,63.0838794 C226.955242,63.4019238 227.605995,63.5609436 228.656349,63.5609436 L233.588421,63.5609436 C236.282807,63.5609436 237.62998,64.8103851 237.62998,67.3093054 C237.62998,69.7173559 236.396974,70.921363 233.930926,70.921363 L228.313844,70.921363 C227.354825,70.921363 226.783989,71.0803829 226.601318,71.3984273 C226.418648,71.7164717 226.327314,72.2162482 226.327314,72.897772 L226.327314,72.897772 Z" id="imGnit" fill="#FFFFFF"></path>
                    <path d="M197,59 C195.373618,59 193.967039,58.4065993 192.78022,57.2197802 C191.593401,56.0329611 191,54.6263818 191,53 C191,51.329662 191.582412,49.9120937 192.747253,48.7472527 C193.912094,47.5824118 195.329662,47 197,47 C198.670338,47 200.087906,47.5824118 201.252747,48.7472527 C202.417588,49.9120937 203,51.329662 203,53 C203,54.670338 202.417588,56.0879063 201.252747,57.2527473 C200.087906,58.4175882 198.670338,59 197,59 L197,59 Z" id="Path" fill="#F8E81C"></path>
                    <ellipse id="Oval" fill="#F8E81C" cx="59" cy="31.5" rx="9" ry="8.5"></ellipse>
                    <ellipse id="Oval" fill="#F8E81C" cx="169" cy="31.5" rx="9" ry="8.5"></ellipse>
                    <path d="M11,59 C9.37361824,59 7.9670389,58.4065993 6.78021978,57.2197802 C5.59340066,56.0329611 5,54.6263818 5,53 C5,51.329662 5.58241176,49.9120937 6.74725275,48.7472527 C7.91209374,47.5824118 9.32966198,47 11,47 C12.670338,47 14.0879063,47.5824118 15.2527473,48.7472527 C16.4175882,49.9120937 17,51.329662 17,53 C17,54.670338 16.4175882,56.0879063 15.2527473,57.2527473 C14.0879063,58.4175882 12.670338,59 11,59 L11,59 Z" id="Path" fill="#F8E81C"></path>
                    <g id="crown" transform="translate(85.000000, 0.000000)" fill="#50E3C2">
                        <g id="Capa_1">
                            <path d="M58.9100543,12.8899444 C58.9194534,13.0575889 58.9070742,13.2281944 58.864664,13.3976611 L55.082133,28.4309944 C54.8914017,29.1883556 54.2082537,29.7209 53.4228627,29.725 L30.7276769,29.8388889 L30.7189656,29.8388889 L8.02355055,29.8388889 C7.23403317,29.8388889 6.54607103,29.3045222 6.35533977,28.5432889 L2.57280879,13.4530111 C2.52925238,13.2789889 2.51664394,13.1036 2.52764767,12.9316278 C1.06438129,12.4735667 0,11.11305 0,9.50972222 C0,7.53147222 1.61961099,5.92222222 3.61059775,5.92222222 C5.6015845,5.92222222 7.22119549,7.53147222 7.22119549,9.50972222 C7.22119549,10.6237833 6.70745901,11.6205389 5.90304076,12.2790444 L10.6387695,17.0200111 C11.835654,18.21835 13.496529,18.9053278 15.1956878,18.9053278 C17.2047848,18.9053278 19.1203502,17.9573167 20.3266337,16.3690222 L28.1094777,6.12266667 C27.455673,5.4735 27.0508276,4.57651111 27.0508276,3.5875 C27.0508276,1.60925 28.6704386,0 30.6614253,0 C32.6524121,0 34.2720231,1.60925 34.2720231,3.5875 C34.2720231,4.5469 33.8887266,5.41769444 33.2690792,6.06207778 C33.2711424,6.06481111 33.2736641,6.06708889 33.2757273,6.07005 L41.0021773,16.34465 C42.2080023,17.9482056 44.130445,18.9055556 46.1452732,18.9055556 C47.8600205,18.9055556 49.4725249,18.2420389 50.6849981,17.0370944 L55.4505286,12.30205 C54.6291463,11.6437722 54.1016551,10.63745 54.1016551,9.50972222 C54.1016551,7.53147222 55.7212661,5.92222222 57.7122529,5.92222222 C59.7032396,5.92222222 61.3228506,7.53147222 61.3228506,9.50972222 C61.3228506,11.0702278 60.3130295,12.3974889 58.9100543,12.8899444 L58.9100543,12.8899444 Z M54.7130497,35.1916667 C54.7130497,34.2482111 53.9432473,33.4833333 52.9937174,33.4833333 L8.52032295,33.4833333 C7.57079305,33.4833333 6.80099069,34.2482111 6.80099069,35.1916667 L6.80099069,39.2916667 C6.80099069,40.2351222 7.57079305,41 8.52032295,41 L52.9937174,41 C53.9432473,41 54.7130497,40.2351222 54.7130497,39.2916667 L54.7130497,35.1916667 L54.7130497,35.1916667 Z" id="Shape"></path>
                        </g>
                    </g>
                </g>
                <rect id="Rectangle-2" fill="#D23A62" x="805" y="59" width="400" height="7" rx="3.5"></rect>
                <rect id="Rectangle-2" fill="#D23A62" x="805" y="89" width="440" height="7" rx="3.5"></rect>
                <rect id="Rectangle-2" fill="#D23A62" x="40" y="59" width="400" height="7" rx="3.5"></rect>
                <rect id="Rectangle-2" fill="#D23A62" x="0" y="89" width="440" height="7" rx="3.5"></rect>
            </g>
        </g>
    </g>
</svg>