<?xml version="1.0" encoding="UTF-8" standalone="no"?>
<svg width="35px" height="64px" viewBox="0 0 35 64" version="1.1" xmlns="http://www.w3.org/2000/svg" xmlns:xlink="http://www.w3.org/1999/xlink">
    <!-- Generator: Sketch 39 (31667) - http://www.bohemiancoding.com/sketch -->
    <title>micro</title>
    <desc>Created with Sketch.</desc>
    <defs></defs>
    <g id="Page-1" stroke="none" stroke-width="1" fill="none" fill-rule="evenodd">
        <g id="answering" transform="translate(-333.000000, -878.000000)" fill="#FFFFFF">
            <g id="ANSWERING" transform="translate(305.000000, 865.000000)">
                <g id="micro" transform="translate(28.000000, 13.000000)">
                    <path d="M33.90625,30.8965517 C33.3025,30.8965517 32.8125,31.3897931 32.8125,32 L32.8125,38.6206897 C32.8125,47.1393103 25.94375,54.0689655 17.5,54.0689655 C9.05625,54.0689655 2.1875,47.1393103 2.1875,38.6206897 L2.1875,32 C2.1875,31.3897931 1.6975,30.8965517 1.09375,30.8965517 C0.49,30.8965517 0,31.3897931 0,32 L0,38.6206897 C0,47.9834483 7.266875,55.6457931 16.40625,56.2195862 L16.40625,61.7931034 L10.9375,61.7931034 C10.33375,61.7931034 9.84375,62.2863448 9.84375,62.8965517 C9.84375,63.5067586 10.33375,64 10.9375,64 L24.0625,64 C24.66625,64 25.15625,63.5067586 25.15625,62.8965517 C25.15625,62.2863448 24.66625,61.7931034 24.0625,61.7931034 L18.59375,61.7931034 L18.59375,56.2195862 C27.733125,55.6457931 35,47.9823448 35,38.6206897 L35,32 C35,31.3897931 34.51,30.8965517 33.90625,30.8965517 L33.90625,30.8965517 Z" id="Shape"></path>
                    <path d="M17.5,50.7586207 C24.1335937,50.7586207 29.53125,45.3131034 29.53125,38.6206897 L29.53125,12.137931 C29.53125,5.44551724 24.1335937,0 17.5,0 C10.8664063,0 5.46875,5.44551724 5.46875,12.137931 L5.46875,38.6206897 C5.46875,45.3131034 10.8664062,50.7586207 17.5,50.7586207 L17.5,50.7586207 Z" id="Shape"></path>
                </g>
            </g>
        </g>
    </g>
</svg>