<?xml version="1.0" encoding="UTF-8" standalone="no"?>
<svg width="80px" height="95px" viewBox="0 0 80 95" version="1.1" xmlns="http://www.w3.org/2000/svg" xmlns:xlink="http://www.w3.org/1999/xlink">
    <!-- Generator: Sketch 39 (31667) - http://www.bohemiancoding.com/sketch -->
    <title>movie</title>
    <desc>Created with Sketch.</desc>
    <defs></defs>
    <g id="Page-1" stroke="none" stroke-width="1" fill="none" fill-rule="evenodd">
        <g id="guess-movie" transform="translate(-842.000000, -265.000000)" fill="#F8E52F">
            <g id="title" transform="translate(518.000000, 265.000000)">
                <g id="movie" transform="translate(324.000000, 0.000000)">
                    <g id="Layer_8_23_">
                        <path d="M77.6959591,31.2867211 L18.418932,31.2867211 L75.0439151,14.8366184 C76.2642397,14.4821596 76.9706994,13.2007669 76.6141274,11.9813367 L73.6090624,1.66009641 C73.2552058,0.440874859 71.9726326,-0.26240985 70.7514724,0.091631726 L1.66255095,20.1633064 C0.441808573,20.5177652 -0.262771172,21.7987406 0.0917120263,23.0183794 L3.09761257,33.3392025 C3.17135009,33.5920595 3.29313188,33.8175863 3.43851803,34.0207899 L3.43851803,44.3386922 C3.43851803,45.6084017 4.47272329,46.6419444 5.74506103,46.6419444 L7.2816423,46.6419444 L7.2816423,92.5398776 C7.2816423,93.5577732 8.10925716,94.3818534 9.12654248,94.3818534 L74.3125977,94.3818534 C75.329883,94.3818534 76.1570801,93.55673 76.1570801,92.5398776 L76.1570801,46.6419444 L77.6932436,46.6419444 C78.964328,46.6419444 79.9999955,45.6084017 79.9999955,44.3386922 L79.9999955,33.5899733 C80.0025021,32.3198465 78.9668346,31.2867211 77.6959591,31.2867211 L77.6959591,31.2867211 Z M47.0579158,32.2080219 L54.4393965,32.2080219 L47.0815201,45.7206435 L39.7015016,45.7206435 L47.0579158,32.2080219 L47.0579158,32.2080219 Z M27.0721238,32.2080219 L34.452769,32.2080219 L27.0944748,45.7206435 L19.7142475,45.7206435 L27.0721238,32.2080219 L27.0721238,32.2080219 Z M59.9176972,4.19868091 L70.7604546,15.1203524 L63.6764306,17.1795099 L52.8309577,6.25700394 L59.9176972,4.19868091 L59.9176972,4.19868091 Z M41.6122016,9.51618926 L52.4566301,20.4384866 L45.3705172,22.4968096 L34.5242087,11.5749295 L41.6122016,9.51618926 L41.6122016,9.51618926 Z M2.57518329,28.2472209 L0.977815577,22.7611412 C0.764540771,22.0292745 1.18837484,21.2611065 1.91990115,21.0487233 L3.96804951,20.454551 L14.7234917,31.2879728 L5.74506103,31.2879728 C5.6980612,31.2879728 5.65335913,31.2998646 5.60823929,31.3021595 L2.57518329,28.2472209 L2.57518329,28.2472209 Z M11.9446526,32.2080219 L7.72636518,33.4341282 L7.3785664,33.0848851 L7.85524917,32.2080219 L11.9446526,32.2080219 L11.9446526,32.2080219 Z M7.8776002,45.7206435 L5.74589659,45.7206435 C4.98282816,45.7206435 4.36117701,45.1010186 4.36117701,44.3386922 L4.36117701,38.6243735 L6.46739627,34.7589155 L15.2325521,32.2115686 L7.8776002,45.7206435 L7.8776002,45.7206435 Z M22.4193491,15.0923962 L33.2639865,26.0142763 L26.1778736,28.0732252 L15.3330273,17.1507193 L22.4193491,15.0923962 L22.4193491,15.0923962 Z M67.270978,72.4777998 L15.9235541,72.4777998 L15.9235541,69.5061037 L67.270978,69.5061037 L67.270978,72.4777998 L67.270978,72.4777998 Z M67.270978,59.8856446 L15.9235541,59.8856446 L15.9235541,56.9154089 L67.270978,56.9154089 L67.270978,59.8856446 L67.270978,59.8856446 Z M66.1450708,45.7206435 L58.7648435,45.7206435 L66.1210487,32.2080219 L73.5029472,32.2080219 L66.1450708,45.7206435 L66.1450708,45.7206435 Z" id="Shape"></path>
                    </g>
                </g>
            </g>
        </g>
    </g>
</svg>