<?xml version="1.0" encoding="UTF-8" standalone="no"?>
<svg width="80px" height="87px" viewBox="0 0 80 87" version="1.1" xmlns="http://www.w3.org/2000/svg" xmlns:xlink="http://www.w3.org/1999/xlink">
    <!-- Generator: Sketch 39 (31667) - http://www.bohemiancoding.com/sketch -->
    <title>Shape</title>
    <desc>Created with Sketch.</desc>
    <defs></defs>
    <g id="Page-1" stroke="none" stroke-width="1" fill="none" fill-rule="evenodd">
        <g id="guess-song" transform="translate(-842.000000, -269.000000)" fill="#F8E81C">
            <g id="title" transform="translate(518.000000, 265.000000)">
                <g id="song" transform="translate(324.000000, 4.000000)">
                    <path d="M79.4666667,0.390182039 C79.1278431,0.0931538254 78.6807843,-0.0420018695 78.2290196,0.0114317773 L29.6015686,6.31503052 C28.8203922,6.41718308 28.2352941,7.08196051 28.2352941,7.87246417 L28.2352941,17.3286481 L28.2352941,23.948134 L28.2352941,63.8410661 C25.3709804,60.3914527 20.8203922,58.1472395 15.6862745,58.1472395 C7.03686275,58.1472395 0,64.4916993 0,72.2914401 C0,80.091181 7.03686275,86.4356408 15.6862745,86.4356408 C24.3356863,86.4356408 31.372549,80.091181 31.372549,72.2914401 C31.372549,71.9268341 31.3427451,71.5685143 31.3113725,71.2117662 C31.3317647,71.1096136 31.372549,71.0168905 31.372549,70.9100232 L31.372549,25.3295509 L76.8627451,19.4314192 L76.8627451,48.123716 C73.9984314,44.6756742 69.4478431,42.431461 64.3137255,42.431461 C55.6643137,42.431461 48.627451,48.7759208 48.627451,56.5756617 C48.627451,64.3754025 55.6643137,70.7198623 64.3137255,70.7198623 C72.8847059,70.7198623 79.8635294,64.4869845 79.9890196,56.7846815 C79.9890196,56.764251 80,56.7469636 80,56.7265331 L80,17.6429636 L80,11.0250493 L80,1.570437 C80,1.11782258 79.8054902,0.687210252 79.4666667,0.390182039 L79.4666667,0.390182039 Z" id="Shape"></path>
                </g>
            </g>
        </g>
    </g>
</svg>